<svg version="1.2" xmlns="http://www.w3.org/2000/svg" viewBox="0 0 72 72" width="72" height="72">
	<title>eye</title>
	<style>
		.s0 { fill: none;stroke: #000000;stroke-linecap: round;stroke-linejoin: round;stroke-width: 2 } 
		.s1 { fill: #ffffff } 
		.s2 { fill: #ffe066 } 
	</style>
	<g id="line">
		<path fill-rule="evenodd" class="s0" d="m35.8 56.9c-19.3 0-34.9-9.2-34.9-20.5 0-11.3 15.6-20.4 34.9-20.4 19.2 0 34.8 9.1 34.8 20.4 0 11.3-15.6 20.5-34.8 20.5z"/>
		<path id="Layer copy" fill-rule="evenodd" class="s1" d="m35.6 50.7c-8.3 0-15-6.8-15-15.1 0-8.4 6.7-15.1 15-15.1 8.3 0 15 6.7 15 15.1 0 8.3-6.7 15.1-15 15.1z"/>
		<path fill-rule="evenodd" class="s2" d="m36 44.4c-4.7 0-8.4-3.8-8.4-8.4 0-4.7 3.7-8.5 8.4-8.5 4.7 0 8.4 3.8 8.4 8.5 0 4.6-3.7 8.4-8.4 8.4z"/>
		<path fill-rule="evenodd" class="s0" d="m36 44.4c-4.7 0-8.4-3.8-8.4-8.4 0-4.7 3.7-8.5 8.4-8.5 4.7 0 8.4 3.8 8.4 8.5 0 4.6-3.7 8.4-8.4 8.4z"/>
		<path fill-rule="evenodd" class="s0" d="m36 51.4c-8.6 0-15.5-6.9-15.5-15.4 0-8.6 6.9-15.5 15.5-15.5 8.6 0 15.5 6.9 15.5 15.5 0 8.5-6.9 15.4-15.5 15.4z"/>
	</g>
</svg>